<svg viewBox="0 0 32 32" xmlns="http://www.w3.org/2000/svg">
    <path
        d="M16 7C16.5523 7 17 7.44772 17 8C17 8.55228 16.5523 9 16 9H6V26H23V17C23 16.4477 23.4477 16 24 16C24.5523 16 25 16.4477 25 17V26.5C25 27.3284 24.3284 28 23.5 28H5.5C4.67157 28 4 27.3284 4 26.5V8.5C4 7.67157 4.67157 7 5.5 7H16ZM28.0732 4.00293C28.0971 4.00123 28.1213 4 28.1455 4C28.6976 4.0001 29.1454 4.44789 29.1455 5V13C29.1454 13.5521 28.6976 13.9999 28.1455 14C27.5933 14 27.1456 13.5522 27.1455 13V7.41504L16.1211 18.4385C15.7306 18.8289 15.0975 18.829 14.707 18.4385C14.3168 18.048 14.3167 17.4149 14.707 17.0244L25.7314 6H20C19.4479 5.9999 19.0001 5.55211 19 5C19.0001 4.44788 19.4479 4.0001 20 4H28C28.0245 4.00001 28.0492 4.00119 28.0732 4.00293Z" />
</svg>