<svg viewBox="0 0 48 48" xmlns="http://www.w3.org/2000/svg">
    <path
        d="M12.0005 12.0005C12.3666 11.6344 12.9456 11.6118 13.3384 11.9321L13.4146 12.0005L24.7075 23.2935L36.0005 12.0005L36.0767 11.9321C36.4694 11.6118 37.0485 11.6344 37.4146 12.0005C37.7802 12.3666 37.8031 12.9458 37.4829 13.3384L37.4146 13.4146L26.1216 24.7075L37.4146 36.0005L37.4829 36.0767C37.8028 36.4694 37.7805 37.0486 37.4146 37.4146C37.0486 37.7805 36.4694 37.8028 36.0767 37.4829L36.0005 37.4146L24.7075 26.1216L13.4146 37.4146L13.3384 37.4829C12.9458 37.8031 12.3666 37.7802 12.0005 37.4146C11.6344 37.0485 11.6118 36.4694 11.9321 36.0767L12.0005 36.0005L23.2935 24.7075L12.0005 13.4146L11.9321 13.3384C11.6118 12.9456 11.6344 12.3666 12.0005 12.0005Z" />
</svg>