<svg viewBox="0 0 24 24" xmlns="http://www.w3.org/2000/svg">
    <path
        d="M18.078 5.93543C18.272 5.80732 18.536 5.82921 18.7069 5.99988C18.8778 6.17073 18.8995 6.43471 18.7714 6.62879L18.7069 6.70691L13.0604 12.3534L18.7069 17.9999L18.7714 18.078C18.8995 18.2721 18.8778 18.536 18.7069 18.7069C18.536 18.8778 18.2721 18.8995 18.078 18.7714L17.9999 18.7069L12.3534 13.0604L6.70691 18.7069L6.62879 18.7714C6.43471 18.8995 6.17073 18.8778 5.99988 18.7069C5.82921 18.536 5.80732 18.272 5.93543 18.078L5.99988 17.9999L11.6464 12.3534L5.99988 6.70691L5.93543 6.62879C5.80744 6.43473 5.82909 6.17068 5.99988 5.99988C6.17068 5.82909 6.43473 5.80744 6.62879 5.93543L6.70691 5.99988L12.3534 11.6464L17.9999 5.99988L18.078 5.93543Z" />
</svg>