<svg viewBox="0 0 24 24" xmlns="http://www.w3.org/2000/svg">
    <path
        d="M12 5.25C12.4142 5.25 12.75 5.58579 12.75 6C12.75 6.41421 12.4142 6.75 12 6.75H4.5V19.5H17.25V12.75C17.25 12.3358 17.5858 12 18 12C18.4142 12 18.75 12.3358 18.75 12.75V19.875C18.75 20.4963 18.2463 21 17.625 21H4.125C3.50368 21 3 20.4963 3 19.875V6.375C3 5.75368 3.50368 5.25 4.125 5.25H12ZM21.0547 3.00195C21.0726 3.00067 21.0911 3 21.1094 3C21.5234 3.00021 21.8593 3.336 21.8594 3.75V9.75C21.8593 10.164 21.5234 10.4998 21.1094 10.5C20.6952 10.5 20.3595 10.1641 20.3594 9.75V5.56055L12.0918 13.8291C11.7989 14.122 11.3232 14.1219 11.0303 13.8291C10.7376 13.5363 10.7378 13.0614 11.0303 12.7686L19.2988 4.5H15C14.586 4.49979 14.2501 4.164 14.25 3.75C14.2501 3.336 14.586 3.00021 15 3H21C21.0181 3.00001 21.0369 3.00068 21.0547 3.00195Z" />
</svg>